<svg width="1649" height="312" viewBox="0 0 1649 312" fill="none" xmlns="http://www.w3.org/2000/svg">
<path d="M205.575 44.2577V61.5378H224.347H243.119V44.2577V26.9776H224.347H205.575V44.2577Z" fill="white"/>
<path d="M572.406 106.347C572.406 192.268 572.438 186.418 572.008 188.23C571.41 190.8 569.991 193.266 568.413 194.479C567.233 195.389 565.782 195.956 563.598 196.371L562.722 196.538L529.641 196.562C506.007 196.586 496.314 196.57 495.684 196.507C494.537 196.395 493.381 196.155 492.496 195.852C491.021 195.349 490.081 194.759 488.997 193.633C487.307 191.893 486.486 190.073 486.015 187.016C485.896 186.25 485.88 183.928 485.856 161.707C485.832 136.812 485.84 135.847 486.127 134.178C486.542 131.752 487.514 129.828 489.108 128.32C490.734 126.787 492.512 125.997 495.326 125.574C496.179 125.447 498.45 125.439 528.948 125.415L561.645 125.391L561.63 106.49L561.606 87.5978L529.721 87.5739C508.239 87.5579 497.239 87.5819 495.995 87.6378C492.153 87.8133 488.55 88.3721 484.126 89.4815C475.621 91.6285 466.43 97.0241 460.739 103.234C458.427 105.756 456.626 108.174 454.92 111.056C450.815 117.976 448.854 124.385 448.2 133.093C448.121 134.162 448.097 140.077 448.097 160.869C448.097 189.978 448.065 188.062 448.583 191.638C449.332 196.882 451.229 203.043 453.517 207.721C454.888 210.514 456.275 212.789 458.029 215.096C458.571 215.814 459.384 216.884 459.838 217.482C462.293 220.715 464.406 222.694 468.901 225.975C471.779 228.082 475.151 229.822 479.583 231.49C481.44 232.184 482.062 232.384 483.847 232.823C487.658 233.765 491.563 234.275 496.043 234.419C499.072 234.523 558.688 234.515 561.606 234.419C565.703 234.283 568.668 233.892 572.207 233.022C579.142 231.322 584.092 229.151 589.863 225.28C594.072 222.463 596.647 220.156 599.421 216.692C603.079 212.15 605.455 207.8 607.248 202.389C608.986 197.161 609.775 193.282 610.11 188.381C610.166 187.543 610.19 161.699 610.19 107.065V26.9777H591.298H572.406V106.347Z" fill="white"/>
<path d="M1469.33 130.714L1469.36 234.459L1488.11 234.483L1506.86 234.499V130.738V26.9777H1488.09H1469.32L1469.33 130.714Z" fill="white"/>
<path d="M33.8455 87.6457C30.8164 87.8851 27.5881 88.9387 24.9098 90.5669C23.8178 91.2374 22.112 92.5384 21.4265 93.2328C20.3264 94.3582 19.2025 95.9385 18.0308 98.0137C17.2018 99.4824 16.7634 100.991 16.4365 103.457C16.309 104.455 16.301 108.214 16.301 169.489V234.459H35.1926H54.0842L54.1081 179.921L54.124 125.383L84.3585 125.415C117.662 125.438 115.167 125.399 117.957 125.917C121.6 126.58 125.8 128.168 128.638 129.948C131.563 131.776 133.684 133.811 135.581 136.605C138.379 140.723 139.893 144.738 140.507 149.679C140.635 150.644 140.643 154.18 140.666 192.611L140.69 234.499H159.582H178.474V193.011C178.474 166.903 178.442 150.868 178.394 149.734C177.852 137.411 174.623 126.42 168.844 117.249C165.034 111.191 160.945 106.538 156.154 102.803C150.128 98.1015 142.109 93.7276 135.222 91.389C132.321 90.4073 130.758 90.0002 126.518 89.1542C122.293 88.3161 120.46 88.0368 116.897 87.7015C115.661 87.5898 35.2962 87.5339 33.8455 87.6457Z" fill="white"/>
<path d="M205.575 161.028V234.499L224.331 234.483L243.08 234.459V161.028V87.5978L224.331 87.5738L205.575 87.5579V161.028Z" fill="white"/>
<path d="M316.812 87.6138C311.36 87.7814 306.362 88.6115 301.866 90.112C299.651 90.8543 298.359 91.397 296.008 92.5783C290.396 95.4038 285.9 98.8279 281.835 103.361C278.83 106.722 275.737 111.702 273.808 116.292C272.19 120.131 270.795 125.351 270.149 129.98C269.679 133.324 269.711 131.241 269.679 160.23C269.663 178.827 269.679 187.328 269.743 188.525C270.189 197.305 272.166 204.352 275.984 210.754C278.184 214.433 280.568 217.498 283.565 220.491C285.884 222.806 287.646 224.234 290.547 226.158C294.7 228.912 298.511 230.676 303.309 232.064C307.104 233.166 310.523 233.852 314.062 234.219C316.621 234.483 319.674 234.507 351.327 234.483L382.654 234.459L382.678 216.357L382.694 198.262H350.634C330.108 198.262 318.239 198.23 317.649 198.183C315.011 197.951 312.763 197.185 310.635 195.788C309.614 195.118 309.216 194.774 308.618 194.048C307.111 192.228 306.219 190.305 305.756 187.886L305.581 186.968L305.549 161.906C305.533 144.323 305.549 136.525 305.613 135.767C305.82 133.189 306.561 131.002 307.837 129.222C308.475 128.328 309.925 126.739 310.595 126.205C312.022 125.055 313.616 124.385 315.936 123.978C316.685 123.85 318.67 123.834 349.175 123.81C372.459 123.794 381.897 123.81 382.614 123.874C385.484 124.129 387.652 125.023 389.852 126.851C390.25 127.194 390.776 127.657 391.008 127.897C393.016 129.9 394.013 132.758 394.013 136.485C394.013 139.135 393.574 141.146 392.538 143.229C391.016 146.31 388.353 148.537 385.236 149.335C383.427 149.798 386.4 149.766 350.275 149.79L317.171 149.814V167.932V186.051L351.072 186.027C382.144 186.003 385.077 185.987 386.321 185.867C395.352 184.973 401.123 182.986 408.201 178.332C411.661 176.05 414.913 173.288 417.241 170.646C422.621 164.532 425.833 158.634 427.89 151.091C428.743 147.947 429.333 144.842 429.691 141.553C429.867 139.949 429.931 134.785 429.811 132.67C429.389 125.486 428.057 119.883 425.61 114.999C421.928 107.632 417.599 102.212 412.147 98.1095C408.169 95.1244 403.315 92.4825 398.317 90.5909C395.169 89.4016 389.645 88.2284 384.886 87.7415C383.626 87.6138 381.155 87.6058 350.53 87.5978C332.38 87.5898 317.211 87.5978 316.812 87.6138Z" fill="white"/>
<path d="M686.704 87.6457C684.002 87.7973 678.765 88.5237 676.669 89.0425C672.261 90.12 669.032 91.2613 665.549 92.9854C663.237 94.1347 661.571 95.1005 659.292 96.617C656.047 98.772 654.142 100.296 651.958 102.483C649.91 104.527 648.786 105.923 646.881 108.789C644.067 113.019 642.441 116.363 641.03 120.801C639.874 124.441 639.348 127.083 638.909 131.417C638.782 132.686 638.774 136.166 638.75 183.64L638.726 234.499L657.594 234.483L676.469 234.459L676.517 184.813C676.541 157.508 676.589 135.04 676.621 134.889C676.653 134.737 676.756 134.234 676.844 133.779C677.266 131.6 678.135 129.908 679.538 128.503C681.188 126.859 683.229 125.981 686.433 125.542C686.999 125.462 695.895 125.438 727.588 125.415L768.018 125.391V106.474V87.5579L727.907 87.5659C705.843 87.5738 687.302 87.6058 686.704 87.6457Z" fill="white"/>
<path d="M832.624 87.6138C828.399 87.7894 824.118 88.4678 819.551 89.681C814.92 90.9102 809.42 93.4723 804.908 96.4973C801.106 99.0514 798.276 101.574 795.574 104.838C793.087 107.847 790.042 112.628 788.535 115.901C786.112 121.168 784.773 126.811 784.359 133.532C784.311 134.378 784.279 144.203 784.279 161.028C784.279 187.24 784.287 188.341 784.566 191.039C785.267 198.031 787.013 203.682 790.265 209.493C792.625 213.707 795.08 217.003 798.141 220.052C800.317 222.223 802.485 223.955 805.681 226.078C811.221 229.766 816.203 231.793 823.297 233.254C826.861 233.988 829.356 234.291 832.743 234.419C835.453 234.523 895.125 234.523 898.027 234.419C901.167 234.307 903.567 234.044 906.317 233.493C909.154 232.918 913.18 231.753 915.842 230.724C919.804 229.191 924.363 226.613 928.476 223.58C931.314 221.489 934.216 218.615 936.95 215.199C938.281 213.547 939.261 211.943 940.64 209.181C941.956 206.555 942.705 204.664 943.781 201.295C945.16 196.961 945.798 193.841 946.228 189.347C946.348 188.054 946.364 185.612 946.396 162.385C946.427 135.751 946.419 135.072 946.085 132.255C945.67 128.727 945.009 125.806 943.614 121.344C942.641 118.231 942.019 116.595 940.927 114.288C939.373 110.984 936.806 106.969 934.463 104.16C931.234 100.297 927.161 96.8884 922.538 94.1906C917.883 91.4769 913.212 89.689 908.11 88.6833C905.823 88.2284 903.925 87.973 900.817 87.7016C900.02 87.6377 891.203 87.6058 866.461 87.5978C848.159 87.5898 832.935 87.5978 832.624 87.6138ZM899.063 125.574C901.414 125.933 903.168 126.588 904.563 127.633C906.699 129.238 907.895 131.528 908.453 135.12C908.573 135.886 908.588 138.257 908.612 160.39C908.628 177.758 908.612 185.149 908.549 185.971C908.27 189.666 907.194 192.109 904.93 194.184C903.575 195.437 901.359 196.251 898.664 196.506C898.019 196.57 888.039 196.586 864.827 196.57L831.906 196.538L830.99 196.363C829.037 195.988 827.65 195.461 826.382 194.615C825.155 193.801 824.055 192.524 823.345 191.095C822.787 189.986 822.325 188.238 822.15 186.593C822.086 186.067 822.062 177.901 822.062 160.973C822.062 133.66 822.038 135.032 822.54 133.101C823.776 128.336 827.251 125.814 833.062 125.478C833.652 125.439 848.542 125.415 866.142 125.423C896.146 125.439 898.202 125.446 899.063 125.574Z" fill="white"/>
<path d="M1168.93 87.6137C1162.55 87.7973 1156.76 88.9227 1151.55 90.9979C1150.05 91.5885 1146.83 93.1769 1145.25 94.1107C1141.72 96.178 1138.79 98.4607 1135.81 101.446C1133.48 103.768 1132.32 105.173 1130.5 107.871C1127.43 112.42 1125.31 117.05 1123.86 122.374C1122.75 126.412 1122.09 130.331 1121.86 134.21C1121.79 135.208 1121.78 143.748 1121.8 162.345C1121.83 191.35 1121.8 189.658 1122.25 193.154C1122.98 198.725 1124.37 203.522 1126.47 207.76C1129.68 214.21 1134.68 220.3 1140.07 224.338C1144.1 227.363 1148.51 229.758 1152.75 231.226C1155.26 232.096 1158.56 232.966 1161.31 233.493C1164.22 234.052 1166.45 234.307 1169.44 234.419C1170.65 234.467 1184.25 234.499 1203.15 234.499H1234.81V216.381V198.262H1202.75C1182.22 198.262 1170.35 198.23 1169.76 198.183C1167.1 197.951 1164.84 197.177 1162.67 195.732C1159.88 193.881 1158.08 190.536 1157.73 186.569C1157.61 185.244 1157.61 137.139 1157.73 135.719C1157.97 132.71 1158.87 130.435 1160.68 128.304C1162.98 125.582 1164.6 124.624 1167.89 124.01L1168.85 123.834L1201.29 123.81C1224.56 123.794 1234.01 123.81 1234.73 123.874C1237.68 124.137 1239.92 125.087 1242.22 127.059C1243.93 128.527 1244.83 129.836 1245.46 131.768C1245.87 133.029 1246.05 134.21 1246.1 135.966C1246.21 139.502 1245.51 142.144 1243.81 144.706C1243.15 145.696 1241.64 147.22 1240.67 147.851C1239.11 148.88 1237.44 149.463 1235.29 149.734C1234.82 149.79 1224.26 149.814 1201.95 149.814H1169.28V167.932V186.051L1203.19 186.027C1234.26 186.003 1237.19 185.987 1238.43 185.867C1247.51 184.965 1253.28 182.97 1260.39 178.269C1264.66 175.459 1267.9 172.538 1270.91 168.81C1275.68 162.904 1278.4 157.453 1280.28 150.014C1281.66 144.586 1282.15 140.101 1281.99 134.49C1281.76 126.692 1280.44 120.538 1277.87 115.294C1274.19 107.807 1269.72 102.172 1264.14 98.0137C1259.29 94.406 1252.63 91.0458 1247.67 89.7129C1243.28 88.5396 1239.06 87.8372 1235.13 87.6377C1233.79 87.5738 1171.2 87.5419 1168.93 87.6137Z" fill="white"/>
<path d="M1346.02 87.6457C1340.41 87.8692 1334.79 88.8908 1330.76 90.4073C1325.56 92.3548 1320.85 94.8131 1318.16 96.9761C1314.85 99.626 1312.6 101.853 1310.34 104.67C1307.93 107.687 1306.63 109.691 1304.98 112.899C1302.61 117.529 1301.29 121.128 1300.14 126.125C1299.52 128.831 1299.19 130.866 1298.96 133.612C1298.81 135.407 1298.81 186.873 1298.96 188.884C1299.64 197.831 1301.57 204.137 1305.82 211.153C1308.4 215.439 1311.41 219.062 1314.76 221.96C1316.87 223.787 1320.23 226.174 1322.85 227.714C1324.39 228.616 1327.37 230.069 1328.95 230.692C1333.39 232.44 1339.28 233.772 1344.94 234.315C1346.26 234.443 1349.99 234.451 1395.13 234.475L1443.89 234.499V215.543V196.586H1395.68C1343.45 196.586 1346.55 196.61 1344.7 196.179C1341.05 195.325 1338.63 193.258 1337.47 190.001C1337.18 189.147 1336.96 188.285 1336.78 187.16C1336.65 186.394 1336.65 184.47 1336.61 162.026C1336.59 136.764 1336.6 135.918 1336.92 134.059C1337.22 132.319 1337.79 130.802 1338.56 129.733C1339.03 129.07 1340.27 127.825 1340.93 127.354C1342.02 126.572 1343.68 125.957 1345.43 125.678C1345.87 125.606 1346.83 125.51 1347.57 125.47C1348.42 125.422 1366.47 125.391 1396.41 125.391H1443.89V106.474V87.5579L1395.73 87.5738C1369.23 87.5738 1346.86 87.6138 1346.02 87.6457Z" fill="white"/>
<path d="M1517.7 106.474V125.391L1550.53 125.415C1581.12 125.438 1583.41 125.446 1584.26 125.574C1587.04 125.989 1588.91 126.811 1590.4 128.264C1592.26 130.076 1593.38 132.774 1593.67 136.126C1593.71 136.756 1593.75 153.741 1593.75 185.787V234.499H1612.48H1631.21V184.43C1631.21 151.666 1631.18 133.915 1631.13 133.053C1630.89 129.182 1630.33 125.646 1629.5 122.741C1627.88 117.098 1626.19 113.458 1622.86 108.47C1620.87 105.5 1619.7 104.048 1617.69 102.084C1616.31 100.727 1615.4 99.9772 1613.32 98.4527C1607.64 94.3103 1604.09 92.3867 1598.81 90.5909C1594.59 89.1622 1592.48 88.6833 1587.49 88.0368C1583.89 87.5738 1586.76 87.6058 1550.73 87.5818L1517.7 87.5579V106.474Z" fill="white"/>
<path d="M962.354 106.514V125.391H984.753H1007.15L1007.17 179.921L1007.19 234.459L1026.34 234.483L1045.49 234.499L1045.51 179.969L1045.53 125.43L1075.69 125.407L1105.83 125.391V106.514V87.6377H1034.09H962.354V106.514Z" fill="white"/>
</svg>
